<?xml version="1.0" encoding="utf-8"?>
<!-- Generator: Adobe Illustrator 16.0.0, SVG Export Plug-In . SVG Version: 6.00 Build 0)  -->
<!DOCTYPE svg PUBLIC "-//W3C//DTD SVG 1.1//EN" "http://www.w3.org/Graphics/SVG/1.1/DTD/svg11.dtd">
<svg version="1.1" id="Layer_1" xmlns="http://www.w3.org/2000/svg" xmlns:xlink="http://www.w3.org/1999/xlink" x="0px" y="0px"
	 width="144px" height="144px" viewBox="0 0 144 144" enable-background="new 0 0 144 144" xml:space="preserve">
<g>
	<circle fill="#CCCED8" cx="72" cy="72" r="72"/>
	<circle fill="none" cx="72" cy="72" r="72"/>
	<path fill="#F37046" d="M141.551,53.363c-2.244-8.394-5.971-16.176-10.876-23.065L30.297,130.675
		c6.89,4.905,14.672,8.632,23.066,10.876L141.551,53.363z"/>
	<path fill="#674FA1" d="M30.297,130.674L130.674,30.296c-4.671-6.56-10.41-12.299-16.97-16.97L13.326,113.703
		C17.996,120.264,23.736,126.003,30.297,130.674z"/>
	<path fill="#62C3A6" d="M113.703,13.326C106.814,8.42,99.032,4.693,90.639,2.45L2.45,90.638
		c2.244,8.394,5.971,16.177,10.876,23.065L113.703,13.326z"/>
</g>
</svg>
